# xmcd
#
# Track frame offsets:
#	150
#	13057
#	24427
#	33595
#	45897
#	56557
#	66307
#	80342
#	90647
#	103930
#
# Disc length: 1497
#
# Revision: 3
# Processed by: cddbd v1.5.1PL0 Copyright (c) Steve Scherf et al.
# Submitted via: CDex 1.30Release
# Normalized: r1:TDELIM( - ),TSWAP
#
DISCID=7805d70a
DTITLE=Merle Haggard and Conway Twitty - Elvis Favorites
DYEAR=1999
DGENRE=Country
TTITLE0=Merle Haggard - Jailhouse Rock
TTITLE1=Merle Haggard - That's All Right (Mama)
TTITLE2=Merle Haggard - Don't Be Cruel
TTITLE3=Merle Haggard - Love Me Tender
TTITLE4=Conway Twitty - Blue Moon
TTITLE5=Conway Twitty - Hound Dog
TTITLE6=Conway Twitty - Shake, Rattle and Roll
TTITLE7=Conway Twitty - Jailhouse Rock
TTITLE8=Merle Haggard - In The Ghetto
TTITLE9=Conway Twitty - Blue Suede Shoes
EXTD=YEAR: 1999 ID3G:   2
EXTT0=
EXTT1=
EXTT2=
EXTT3=
EXTT4=
EXTT5=
EXTT6=
EXTT7=
EXTT8=
EXTT9=
PLAYORDER=
